<svg xmlns="http://www.w3.org/2000/svg" width="821.046" height="139.317" id="booking"><defs><clipPath id="a"><path d="M736.875-36.215h821.046V103.1H736.875Z" data-name="Path 3043" transform="translate(-736.875 36.215)"></path></clipPath><clipPath id="b"><path d="M736.875 103.1h821.046V-36.215H736.875Z" data-name="Path 3042" transform="translate(-736.875 36.215)"></path></clipPath><clipPath id="c"><path d="M736.875-35.82h820.872v136.389H736.875Z" data-name="Path 3047" transform="translate(-736.875 35.82)"></path></clipPath></defs><g clip-path="url(#a)" data-name="Group 1479"><g clip-path="url(#b)" data-name="Group 1478"><path fill="#273b7d" d="M321.974 15.248A12.476 12.476 0 0 1 334.45 2.772a12.476 12.476 0 0 1 12.474 12.476 12.486 12.486 0 0 1-12.477 12.012 12.485 12.485 0 0 1-12.473-12.012" data-name="Path 3039"></path><path fill="#499fdd" d="M518.824 98.456a12.481 12.481 0 0 1 12.45-12.52 12.511 12.511 0 0 1 12.511 12.511 12.511 12.511 0 0 1-12.511 12.511 12.49 12.49 0 0 1-12.45-12.511" data-name="Path 3040"></path><path fill="#273b7d" d="M117.214 93.043c-10.739 0-18.21-8.532-18.21-20.73S106.476 51.6 117.223 51.6c10.8 0 18.35 8.523 18.35 20.713-.001 12.39-7.382 20.73-18.359 20.73Zm0-59.663c-22.729.001-39.223 16.375-39.223 38.933s16.5 38.932 39.223 38.932c22.825 0 39.384-16.369 39.384-38.924s-16.56-38.94-39.375-38.94m180.585 40.887a18.565 18.565 0 0 0-2.971-4.2l-.7-.721.729-.7a31.26 31.26 0 0 0 3.137-3.918l20.076-29.811h-24.362l-15.075 23.329q-1.277 1.877-5.152 1.877h-3.432v-44.1c0-8.819-5.5-10.018-11.434-10.018h-10.165l.026 104.095h21.582V78.873h2.024c2.459 0 4.127.287 4.9 1.625l11.9 22.467c3.328 6.1 6.637 7.133 12.875 7.133H318.3l-12.32-20.365-8.167-15.465m104.76-41.061c-10.982 0-17.985 4.883-21.912 9.01l-1.3 1.321-.47-1.799c-1.147-4.422-5.039-6.846-10.887-6.846h-9.669l.061 75.18h21.434v-34.65a27.856 27.856 0 0 1 1.338-9.01c2.38-8.124 9.036-13.171 17.351-13.171 6.69 0 9.3 3.536 9.3 12.659v32.746c0 7.785 3.605 11.425 11.4 11.425h10.2l-.035-47.82c0-18.993-9.271-29.036-26.812-29.036m-67.865 1.7h-10.155l.069 58.139v17.043h10.834l.382.017 5.056-.017h5.022v-.026h.035l.044-63.729c0-7.689-3.675-11.416-11.277-11.416M201.391 93.043c-10.739 0-18.219-8.532-18.219-20.73S190.653 51.6 201.401 51.6c10.773 0 18.349 8.523 18.349 20.713 0 12.39-7.385 20.73-18.349 20.73Zm0-59.663c-22.746 0-39.254 16.377-39.254 38.932s16.512 38.933 39.266 38.933c22.79 0 39.384-16.369 39.384-38.924s-16.596-38.94-39.384-38.94" data-name="Path 3041"></path></g></g><g clip-path="url(#a)" data-name="Group 1482"><g clip-path="url(#c)" data-name="Group 1481" transform="translate(0 2.746)"><g clip-path="url(#b)" data-name="Group 1480" transform="translate(0 -2.746)"><path fill="#499fdd" d="M660.789 93.043c-10.739 0-18.228-8.532-18.228-20.73S650.05 51.6 660.789 51.6c10.791 0 18.358 8.523 18.358 20.713 0 12.389-7.384 20.73-18.358 20.73Zm0-59.663c-22.742.001-39.242 16.378-39.242 38.933s16.5 38.932 39.245 38.932c22.8 0 39.384-16.369 39.384-38.924S683.582 33.38 660.792 33.38" data-name="Path 3044"></path><path fill="#273b7d" d="M474.573 89.733c-11.721 0-15.891-10.217-15.891-19.8 0-4.223 1.069-17.976 14.771-17.976 6.8 0 15.865 1.946 15.865 18.68-.001 15.786-8.02 19.096-14.745 19.096Zm25.874-55.014c-4.066 0-7.194 1.625-8.767 4.587l-.591 1.147-.99-.869c-3.458-2.989-9.662-6.542-19.731-6.542-20.044 0-33.537 15.057-33.537 37.447s13.962 38.02 33.937 38.02c6.82 0 12.216-1.6 16.491-4.831l1.65-1.242v2.085c0 10.044-6.49 15.587-18.262 15.587a43.264 43.264 0 0 1-14.422-2.659c-4.535-1.373-7.211-.235-9.044 4.327l-1.7 4.205-2.407 6.151 1.486.791a58.607 58.607 0 0 0 26.212 6.386c18.246 0 39.567-9.34 39.567-35.631l.078-68.959h-9.967" data-name="Path 3045"></path></g></g></g><g clip-path="url(#a)" data-name="Group 1484"><g clip-path="url(#b)" data-name="Group 1483"><path fill="#273b7d" d="m37.403 92.185-17.446-.017V71.314c0-4.466 1.729-6.777 5.543-7.316h11.9c8.488 0 13.98 5.352 13.988 14.014-.008 8.9-5.361 14.162-13.988 14.162ZM19.957 35.918v-5.491c0-4.8 2.033-7.09 6.49-7.385h8.932c7.654 0 12.242 4.579 12.242 12.251 0 5.839-3.145 12.659-11.964 12.659h-15.7ZM59.68 56.735l-3.155-1.772 2.754-2.355c3.206-2.754 8.567-8.949 8.567-19.636 0-16.369-12.685-26.934-32.329-26.934H10.548A10.948 10.948 0 0 0 0 16.846v92.879h35.961c21.833 0 35.926-11.886 35.926-30.3 0-9.913-4.553-18.384-12.207-22.694" data-name="Path 3049"></path><path fill="#499fdd" d="M795.91 33.46a29.539 29.539 0 0 0-23.006 11.147l-1.546 1.964-1.216-2.2c-3.979-7.237-10.809-10.913-20.3-10.913a27.2 27.2 0 0 0-19.749 8.862l-2.034 2.2-.782-2.893c-1.13-4.17-4.839-6.455-10.452-6.455h-9.01l-.091 74.888h20.461V77.005a37 37 0 0 1 1.086-8.758c1.955-7.993 7.325-16.586 16.352-15.726 5.561.539 8.289 4.839 8.289 13.145v44.394h20.609V77.005a29.991 29.991 0 0 1 1.155-9.045c1.651-7.628 7.264-15.448 15.969-15.448 6.308 0 8.636 3.562 8.636 13.154v33.45c0 7.559 3.372 10.947 10.938 10.947h9.626l.018-47.812c0-19.106-8.41-28.793-24.953-28.793M609.685 84.06c-.061.078-8.862 9.357-20.461 9.357-10.564 0-21.234-6.481-21.234-20.948 0-12.494 8.272-21.226 20.122-21.226 3.841 0 8.219 1.373 8.906 3.693l.1.391a7.524 7.524 0 0 0 7.293 5.533l11.208.017v-9.8c0-12.928-16.447-17.62-27.507-17.62-23.667 0-40.835 16.473-40.835 39.167 0 22.677 16.977 39.132 40.4 39.132a42.48 42.48 0 0 0 31.469-13.484l.591-.73-8.879-14.727-1.173 1.245" data-name="Path 3050"></path></g></g></svg>